<svg xmlns="http://www.w3.org/2000/svg" style="display: none;">
  <symbol id="icon-linkedin" viewBox="0 0 24 24">
    <path d="M19 0h-14c-2.761 0-5 2.239-5 5v14c0 2.761 2.239 5 5 5h14c2.761 0 5-2.239 5-5v-14c0-2.761-2.239-5-5-5zm-11 19h-3v-10h3v10zm-1.5-11.268c-.966 0-1.75-.784-1.75-1.75s.784-1.75 1.75-1.75 1.75.784 1.75 1.75-.784 1.75-1.75 1.75zm13.5 11.268h-3v-5.604c0-1.337-.026-3.063-1.868-3.063-1.868 0-2.154 1.459-2.154 2.967v5.7h-3v-10h2.881v1.367h.041c.401-.761 1.379-1.563 2.841-1.563 3.039 0 3.6 2.001 3.6 4.601v5.595z"/>
  </symbol>
  <symbol id="icon-facebook" viewBox="0 0 24 24">
    <path d="M22.675 0h-21.35c-.733 0-1.325.592-1.325 1.326v21.348c0 .733.592 1.326 1.325 1.326h11.495v-9.294h-3.128v-3.622h3.128v-2.671c0-3.1 1.893-4.788 4.659-4.788 1.325 0 2.463.099 2.797.143v3.24l-1.918.001c-1.504 0-1.797.715-1.797 1.763v2.312h3.587l-.467 3.622h-3.12v9.293h6.116c.73 0 1.323-.593 1.323-1.326v-21.349c0-.733-.593-1.325-1.326-1.325z"/>
  </symbol>
  <symbol id="icon-instagram" viewBox="0 0 24 24">
    <path d="M12 2.163c3.204 0 3.584.012 4.85.07 1.366.062 2.633.334 3.608 1.308.974.974 1.246 2.241 1.308 3.608.058 1.266.069 1.646.069 4.85s-.012 3.584-.07 4.85c-.062 1.366-.334 2.633-1.308 3.608-.974.974-2.241 1.246-3.608 1.308-1.266.058-1.646.069-4.85.069s-3.584-.012-4.85-.07c-1.366-.062-2.633-.334-3.608-1.308-.974-.974-1.246-2.241-1.308-3.608-.058-1.266-.069-1.646-.069-4.85s.012-3.584.07-4.85c.062-1.366.334-2.633 1.308-3.608.974-.974 2.241-1.246 3.608-1.308 1.266-.058 1.646-.069 4.85-.069zm0-2.163c-3.259 0-3.667.012-4.947.07-1.276.058-2.687.334-3.678 1.325-.991.991-1.267 2.402-1.325 3.678-.058 1.28-.07 1.688-.07 4.947s.012 3.667.07 4.947c.058 1.276.334 2.687 1.325 3.678.991.991 2.402 1.267 3.678 1.325 1.28.058 1.688.07 4.947.07s3.667-.012 4.947-.07c1.276-.058 2.687-.334 3.678-1.325.991-.991 1.267-2.402 1.325-3.678.058-1.28.07-1.688.07-4.947s-.012-3.667-.07-4.947c-.058-1.276-.334-2.687-1.325-3.678-.991-.991-2.402-1.267-3.678-1.325-1.28-.058-1.688-.07-4.947-.07zm0 5.838a6.162 6.162 0 1 0 0 12.324 6.162 6.162 0 0 0 0-12.324zm0 10.162a3.999 3.999 0 1 1 0-7.998 3.999 3.999 0 0 1 0 7.998zm6.406-11.845a1.44 1.44 0 1 0 0 2.881 1.44 1.44 0 0 0 0-2.881z"/>
  </symbol>
  <symbol id="icon-youtube" viewBox="0 0 24 24">
    <path d="M23.498 6.186a2.994 2.994 0 0 0-2.107-2.117c-1.863-.502-9.391-.502-9.391-.502s-7.528 0-9.391.502a2.994 2.994 0 0 0-2.107 2.117c-.502 1.863-.502 5.754-.502 5.754s0 3.891.502 5.754a2.994 2.994 0 0 0 2.107 2.117c1.863.502 9.391.502 9.391.502s7.528 0 9.391-.502a2.994 2.994 0 0 0 2.107-2.117c.502-1.863.502-5.754.502-5.754s0-3.891-.502-5.754zm-13.498 9.568v-7.508l6.545 3.754-6.545 3.754z"/>
  </symbol>
</svg>